<?xml version="1.0" standalone="no"?><!DOCTYPE svg PUBLIC "-//W3C//DTD SVG 1.1//EN" "http://www.w3.org/Graphics/SVG/1.1/DTD/svg11.dtd"><svg t="1586524346439" class="icon" viewBox="0 0 1024 1024" version="1.1" xmlns="http://www.w3.org/2000/svg" p-id="5361" width="32" height="32" xmlns:xlink="http://www.w3.org/1999/xlink"><defs><style type="text/css"></style></defs><path d="M212 944h-32a96 96 0 0 1-96-96V464a96 96 0 0 1 96-96h32a96 96 0 0 1 96 96v384a96 96 0 0 1-96 96z m-32-512a32 32 0 0 0-32 32v384a32 32 0 0 0 32 32h32a32 32 0 0 0 32-32V464a32 32 0 0 0-32-32h-32z" p-id="5362" fill="#d81e06"></path><path d="M276 432h-64a32 32 0 0 1 0-64h64a192 192 0 0 0 192-192 32 32 0 1 1 64 0 256 256 0 0 1-256 256zM836 432H579.52a48 48 0 0 1-39.52-75.12 318.24 318.24 0 0 0 56-180.88 32 32 0 0 1 64 0 382 382 0 0 1-51.36 192h227.36a32 32 0 0 1 0 64z" p-id="5363" fill="#d81e06"></path><path d="M628 208a32 32 0 0 1-32-32 32 32 0 0 0-64 0 32 32 0 1 1-64 0 96 96 0 0 1 192 0 32 32 0 0 1-32 32zM692 944h-192a32 32 0 0 1 0-64h192a32 32 0 0 0 0-64 32 32 0 1 1 0-64h48a32 32 0 0 0 0-64 32 32 0 1 1 0-64h48a32 32 0 0 0 0-64 32 32 0 1 1 0-64h56a32 32 0 0 0 0-64 32 32 0 0 1 0-64 96 96 0 0 1 32 186.4 96 96 0 0 1-49.2 125.28 96 96 0 0 1-48 128A96 96 0 0 1 692 944zM388 880a32 32 0 1 0 32 32 32 32 0 0 0-32-32z" p-id="5364" fill="#d81e06"></path></svg>