<?xml version="1.0" standalone="no"?><!DOCTYPE svg PUBLIC "-//W3C//DTD SVG 1.1//EN" "http://www.w3.org/Graphics/SVG/1.1/DTD/svg11.dtd"><svg t="1582456823468" class="icon" viewBox="0 0 1024 1024" version="1.1" xmlns="http://www.w3.org/2000/svg" p-id="2938" xmlns:xlink="http://www.w3.org/1999/xlink" width="200" height="200"><defs><style type="text/css"></style></defs><path d="M775.830091 388.443346h-70.590665c0-113.381009-86.656855-200.039821-197.104821-200.039822-110.602543 0-197.106778 86.658812-197.106778 200.039822h-70.743285c0-136.090083 120.023893-270.632443 267.697443-270.632443S775.837918 252.355219 775.837918 388.443346h-0.007827z m89.595769 129.296536c0-38.925928-31.668651-70.588708-70.592622-70.588708H229.162849c-38.929841 0-70.592622 31.662781-70.592622 70.588708v321.91472c0 38.927884 31.666694 70.590665 70.592622 70.590665h565.513856c38.927884 0 70.590665-31.666694 70.590665-70.590665V517.739882h0.15849z m-297.511174 232.810075c0 29.193467-23.638491 52.980665-52.980664 52.980665h-7.568387c-29.197381 0-52.982621-23.636534-52.982621-52.980665v-143.656513c0-29.195424 23.636534-52.982621 52.982621-52.982621h7.568387c29.193467 0 52.980665 23.636534 52.980664 52.982621v143.656513z" fill="#525252" p-id="2939"></path></svg>