<?xml version="1.0" standalone="no"?><!DOCTYPE svg PUBLIC "-//W3C//DTD SVG 1.1//EN" "http://www.w3.org/Graphics/SVG/1.1/DTD/svg11.dtd"><svg t="1586003143905" class="icon" viewBox="0 0 1024 1024" version="1.1" xmlns="http://www.w3.org/2000/svg" p-id="940" width="32" height="32" xmlns:xlink="http://www.w3.org/1999/xlink"><defs><style type="text/css"></style></defs><path d="M203.52 855.04l31.168-189.312a46.464 46.464 0 0 0-12.48-40.064L90.048 491.584a91.84 91.84 0 0 1-21.824-91.968c10.24-32.704 36.864-56.064 69.568-61.056l182.592-27.648a43.84 43.84 0 0 0 32.768-24.704L434.752 113.92C449.344 83.136 478.976 64 512 64s62.656 19.136 77.248 49.984l81.6 172.288c6.336 13.312 18.56 22.592 32.768 24.704l182.592 27.648c32.704 4.928 59.328 28.352 69.568 61.056a91.904 91.904 0 0 1-21.824 91.968l-132.096 134.08a46.464 46.464 0 0 0-12.48 40.064l31.168 189.312a90.88 90.88 0 0 1-34.24 87.744c-26.688 20.16-61.44 22.784-90.752 6.784L532.16 860.16a42.048 42.048 0 0 0-40.448 0l-163.264 89.408a83.008 83.008 0 0 1-90.688-6.784 90.816 90.816 0 0 1-34.24-87.744z" p-id="941" fill="#707070"></path></svg>