<?xml version="1.0" standalone="no"?><!DOCTYPE svg PUBLIC "-//W3C//DTD SVG 1.1//EN" "http://www.w3.org/Graphics/SVG/1.1/DTD/svg11.dtd"><svg t="1586006614546" class="icon" viewBox="0 0 1024 1024" version="1.1" xmlns="http://www.w3.org/2000/svg" p-id="1976" xmlns:xlink="http://www.w3.org/1999/xlink" width="32" height="32"><defs><style type="text/css"></style></defs><path d="M513.6 517.6c-20.5 0-37.1 16.6-37.1 37.1 0 14.5 8.5 27.8 21.8 33.8 7.3 3.3 11.4 11.2 9.9 19.1l-21.5 113.6h53.9l-21.5-113.6c-1.5-7.9 2.6-15.8 9.9-19.1 13.2-6 21.8-19.3 21.8-33.8-0.1-20.5-16.7-37.1-37.2-37.1z" fill="#8a8a8a" p-id="1977"></path><path d="M585.6 554.7c0-39.7-32.3-72-72-72s-72 32.3-72 72c0 23.4 11.4 45.1 30 58.4l-23.2 122.3c-1 5.1 0.4 10.4 3.7 14.4 3.3 4 8.2 6.3 13.4 6.3h96c5.2 0 10.1-2.3 13.4-6.3 3.3-4 4.7-9.3 3.7-14.4l-23.2-122.3c18.8-13.3 30.2-35 30.2-58.4zM529 588.5c-7.3 3.3-11.4 11.2-9.9 19.1l21.5 113.6h-53.9l21.5-113.6c1.5-7.9-2.6-15.8-9.9-19.1-13.2-6-21.8-19.3-21.8-33.8 0-20.4 16.6-37.1 37.1-37.1 20.4 0 37.1 16.6 37.1 37.1 0 14.5-8.5 27.7-21.7 33.8z" fill="#8a8a8a" p-id="1978"></path><path d="M729.9 316.5c19.6 3.7 38.5 10 56.1 18.6C766.7 201.4 650.9 99.4 513.6 99.4c-137.1 0-253.1 102-272.4 235.7 17.3-8.4 35.7-14.6 54.8-18.4 26.1-98.4 114.6-166.6 217-166.6 101.6 0 190.9 69.3 216.9 166.4z" fill="#8a8a8a" p-id="1979"></path><path d="M308.9 391c-73.7 17.6-117.3 88.4-106 172.1 5.2 39 23.8 78.2 55.2 116.4 3.4 4.2 8.4 6.4 13.5 6.4 3.9 0 7.8-1.3 11-4 7.4-6.1 8.5-17.1 2.4-24.5-27.2-33.2-43.3-66.5-47.6-99-8.8-65.3 23.9-120.2 79.6-133.5 9.4-2.2 15.1-11.6 12.9-21-2.2-9.4-11.6-15.2-21-12.9z" fill="#8a8a8a" p-id="1980"></path><path d="M905.4 482.9c-11.9-51.1-42-94.9-82.5-125.4 0.2-1.3 0.3-2.6 0.2-3.9-5.2-78.4-39.8-151.2-97.2-205.1-57.7-54.2-133.1-84-212.2-84-79 0-154.2 29.7-211.8 83.6-57.4 53.7-92 126.2-97.5 204.3-0.1 1.7 0 3.3 0.4 4.9-40.6 30.4-70.8 74.3-82.7 125.5-11.8 50.8-11.2 131.7 58.7 228.4 64.6 89.4 174 172.4 325.3 246.7 2.4 1.2 5.1 1.8 7.7 1.8 2.6 0 5.3-0.6 7.7-1.8 151-74.1 260.5-157.1 325.1-246.5 70-96.8 70.6-177.7 58.8-228.5zM513 150.1c-102.4 0-190.8 68.3-217 166.6-19.2 3.7-37.6 10-54.8 18.4C260.5 201.4 376.5 99.4 513.6 99.4 650.9 99.4 766.7 201.3 786 335c-17.6-8.6-36.5-14.9-56.1-18.6-26-97-115.3-166.3-216.9-166.3z m0 34.9c81.3 0 153.2 52.5 179.3 127.7-1.1 0-2.2-0.1-3.2-0.1-68.1 0-129.6 31.2-175.4 88.5-45.8-57.2-107.3-88.5-175.4-88.5-1.5 0-3.1 0.1-4.6 0.1 26-76 97.4-127.7 179.3-127.7z m0.6 737.9C256.3 794.7 122.7 633.6 155.9 490.8c19.3-83.1 96-143.4 182.3-143.4 63.5 0 120.7 32.9 160.9 92.8 3.2 4.8 8.7 7.7 14.5 7.7 5.8 0 11.2-2.9 14.5-7.7 40.3-59.8 97.4-92.8 161-92.8 86.4 0 163.1 60.3 182.4 143.4 33.1 142.8-100.6 303.9-357.9 432.1z" fill="#8a8a8a" p-id="1981"></path></svg>