<?xml version="1.0" standalone="no"?><!DOCTYPE svg PUBLIC "-//W3C//DTD SVG 1.1//EN" "http://www.w3.org/Graphics/SVG/1.1/DTD/svg11.dtd"><svg t="1586524310190" class="icon" viewBox="0 0 1024 1024" version="1.1" xmlns="http://www.w3.org/2000/svg" p-id="4416" width="32" height="32" xmlns:xlink="http://www.w3.org/1999/xlink"><defs><style type="text/css"></style></defs><path d="M791 875.42H215.28c-30.52 0-55.27-24.74-55.27-55.27V240.99c0-30.52 24.74-55.27 55.27-55.27h370.67c15.26 0 27.63 12.37 27.63 27.63s-12.37 27.63-27.63 27.63H256.93c-23 0-41.64 18.64-41.64 41.64V778.5c0 23 18.64 41.64 41.64 41.64h492.42c23 0 41.64-18.64 41.64-41.64V460.54c0-15.26 12.37-27.63 27.63-27.63s27.63 12.37 27.63 27.63v359.61c0.01 30.53-24.73 55.27-55.25 55.27z" p-id="4417" fill="#d81e06"></path><path d="M812.67 199c-17.71-17.71-46.42-17.71-64.12 0L407.51 540.04l-59.99 134.32c-3.41 13.06 8.14 25.13 21.34 22.31l139.71-53.41 0.01 0.01L850.7 301.16c17.71-17.71 17.71-46.42 0-64.12L812.67 199z m5.97 70.1l-27.37 27.37-38.03-38.03 27.37-27.37 38.03 38.03zM408.59 648.74c-6.04 4.07-13.1-3.51-8.62-9.25l37.77-67.06 36.97 36.97-66.12 39.34z m61.97-107.62L721.18 290.5l38.03 38.03-250.62 250.62-38.03-38.03z" p-id="4418" fill="#d81e06"></path></svg>